<?xml version="1.0"?>
<svg id="q2" xmlns="http://www.w3.org/2000/svg" version="1.1" width="400px" height="400px" viewBox="0 0 100 130"><rect x="10" y="43" width="10" height="10" fill="#ffed00" opacity="1"></rect><rect x="10" y="54" width="10" height="10" fill="#ffed00" opacity="1"></rect><rect x="10" y="65" width="10" height="10" fill="#ffed00" opacity="1"></rect><rect x="10" y="76" width="10" height="10" fill="#ffed00" opacity="1"></rect><rect x="10" y="87" width="10" height="10" fill="#ffed00" opacity="1"></rect><rect x="10" y="98" width="10" height="10" fill="#ffed00" opacity="1"></rect><rect x="10" y="109" width="10" height="10" fill="#ffed00" opacity="1"></rect><rect x="21" y="109" width="10" height="10" fill="#87888a" opacity="1"></rect><rect x="32" y="98" width="10" height="10" fill="#87888a" opacity="1"></rect><rect x="32" y="109" width="10" height="10" fill="#87888a" opacity="1"></rect><rect x="43" y="109" width="10" height="10" fill="#87888a" opacity="1"></rect><line x1="54" y1="119" x2="64" y2="119" stroke-width="2px" stroke="black"></line><text x="12" y="125" text-anchor="left" style="font-size: 5px;">++</text><text x="25" y="125" text-anchor="left" style="font-size: 5px;">+</text><text x="35" y="125" text-anchor="left" style="font-size: 5px;">~</text><text x="48" y="125" text-anchor="left" style="font-size: 5px;">-</text><text x="58" y="125" text-anchor="left" style="font-size: 5px;">--</text></svg>
